PathFileType	4	(X/Y/Z)	c:\Git\powerlifing_model_clean\simulations\HC835B\Session1\HC835B_CUT_0002\marker_experimental.trc
DataRate	CameraRate	NumFrames	NumMarkers	Units	OrigDataRate	OrigDataStartFrame	OrigNumFrames
240.000000	240.000000	4	38	mm	240.000000	71	82
Frame#	Time	RPSI			LPSI			RASI			LASI			RTH1			RTH2			RTH3			RTH4			RSK1			RSK2			RSK3			RSK4			RCAL1			RCAL2			RCAL3			RST			RPT			RTN			RFMB			RSMB			RVMB			RFMH			RSMH			RVMH			RPM			LTH1			LTH2			LTH3			LTH4			LSK1			LSK2			LSK3			LSK4			LCAL1			LCAL2			LCAL3			LFMH			LVMH			
		X1	Y1	Z1	X2	Y2	Z2	X3	Y3	Z3	X4	Y4	Z4	X5	Y5	Z5	X6	Y6	Z6	X7	Y7	Z7	X8	Y8	Z8	X9	Y9	Z9	X10	Y10	Z10	X11	Y11	Z11	X12	Y12	Z12	X13	Y13	Z13	X14	Y14	Z14	X15	Y15	Z15	X16	Y16	Z16	X17	Y17	Z17	X18	Y18	Z18	X19	Y19	Z19	X20	Y20	Z20	X21	Y21	Z21	X22	Y22	Z22	X23	Y23	Z23	X24	Y24	Z24	X25	Y25	Z25	X26	Y26	Z26	X27	Y27	Z27	X28	Y28	Z28	X29	Y29	Z29	X30	Y30	Z30	X31	Y31	Z31	X32	Y32	Z32	X33	Y33	Z33	X34	Y34	Z34	X35	Y35	Z35	X36	Y36	Z36	X37	Y37	Z37	X38	Y38	Z38	

72	0.2958333333333333	-285.5733337402344	1122.124389648438	-996.8457641601565	-371.2735595703126	1080.944580078125	-942.3010253906252	-319.2535400390626	1032.897338867188	-1200.284912109375	-514.2531127929689	997.3096923828127	-1085.001831054688	-91.13807678222658	845.061950683594	-1099.516357421875	-113.0954895019532	805.467468261719	-1139.921508789063	-70.49036407470705	763.6948852539064	-1089.116333007813	-98.572380065918	723.5338745117189	-1121.080810546875	151.3126831054688	460.6874084472657	-822.670593261719	146.3206634521485	410.726287841797	-858.8592529296877	174.057113647461	409.8183593750001	-804.400573730469	160.0516357421875	359.6148986816407	-833.7431640625002	201.7383880615235	350.1941528320313	-679.1132202148439	177.7970581054688	327.1601562500001	-642.2354736328126	240.7396392822266	334.0021972656251	-654.9809570312501	161.1920471191407	267.0508117675782	-680.8378906250001	261.0853881835938	286.1282043457032	-693.1815795898439	171.1532135009766	227.5634460449219	-723.4165039062501	178.6223602294922	191.7462615966797	-722.3905029296876	220.4196166992188	196.2200012207032	-756.5388183593751	276.8420104980469	235.2427978515626	-689.4160766601564	182.7691650390625	130.8601531982422	-714.7451171875001	230.6673736572266	128.4978179931641	-742.8119506835939	295.9573974609376	159.5860748291016	-711.3654785156251	222.4744262695313	71.82037353515626	-757.2000732421876	-520.8485717773439	740.9581909179689	-1122.713256835938	-559.1618041992189	767.6281127929689	-1163.80712890625	-538.9507446289064	691.6171264648439	-1191.09228515625	-563.0763549804689	722.4464111328126	-1238.129028320313	-396.980438232422	308.5644531250001	-1318.308715820313	-425.0632324218751	289.9627380371094	-1360.147827148438	-387.2517700195314	259.7546997070313	-1346.271118164063	-407.2404174804689	250.2393035888672	-1399.042114257813	-266.2647094726563	134.7338104248047	-1374.253540039063	-282.1392211914063	89.39321136474611	-1373.871337890625	-238.3548889160157	112.2761535644532	-1405.343017578125	-366.6371459960938	158.718734741211	-1580.234252929688	-417.9946899414064	85.56655883789064	-1512.203857421875	
73	0.3	-296.0661926269532	1124.403564453125	-1014.108337402344	-381.1967163085938	1082.754638671875	-958.982604980469	-329.2425537109376	1034.159057617188	-1216.75634765625	-523.2043457031251	998.8328857421877	-1101.473754882813	-100.8772659301758	845.4511718750002	-1116.554077148438	-122.6459274291992	806.2278442382815	-1157.435180664063	-80.10886383056642	764.0200805664064	-1106.974243164063	-108.0684127807617	724.1233520507814	-1139.379760742188	143.4246215820313	468.3323364257814	-836.867370605469	139.3553466796875	417.1621704101564	-871.2651367187502	167.2201690673828	418.6295166015626	-816.949401855469	153.8490905761719	367.0641174316407	-844.657409667969	194.5355682373047	363.0549316406251	-689.4140625000001	172.0009460449219	339.9341430664063	-651.8759765625001	234.4863433837891	348.9617004394532	-665.6519775390626	157.3264465332032	278.9468078613282	-688.5479736328126	255.9494781494141	300.9850158691407	-702.8593750000001	167.9133758544922	238.3294372558594	-730.5323486328126	176.9420928955078	202.8423309326172	-728.2668457031251	217.8977355957032	208.3320922851563	-763.7969970703126	273.7638244628907	250.8117218017579	-698.2650146484376	183.3325805664063	142.3041076660157	-719.8449096679689	230.7656250000001	141.1029052734375	-748.9496459960939	295.2840881347657	175.3970947265625	-719.1664428710939	224.8180084228516	83.6677932739258	-761.4197387695314	-529.0145874023439	738.4283447265626	-1137.701416015625	-566.8781738281251	764.6782836914064	-1179.572387695313	-546.1065063476564	688.1991577148439	-1205.884765625	-569.5032348632814	718.5750122070314	-1253.3994140625	-407.7701416015626	303.1115722656251	-1341.479614257813	-436.9190368652345	286.5972900390626	-1383.26123046875	-399.4197082519532	255.0150604248047	-1371.170166015625	-420.8362731933595	247.0108795166016	-1423.668579101563	-281.2820739746094	128.5088653564453	-1405.183837890625	-297.9011535644532	83.30287170410158	-1406.376098632813	-254.2336883544922	106.7189331054688	-1437.52392578125	-383.9620056152344	161.193359375	-1609.020263671875	-435.2623291015626	86.40759277343751	-1543.32421875	
74	0.3041666666666666	-306.6013183593751	1126.494262695313	-1031.375610351563	-391.0471496582032	1084.3935546875	-975.5832519531252	-339.2723083496094	1035.42236328125	-1233.099609375	-532.0549926757814	1000.078247070313	-1117.714477539063	-111.0622940063477	845.2864990234377	-1134.043090820313	-132.7970275878907	806.4282836914065	-1175.227905273438	-90.16661071777345	763.7738037109376	-1125.192260742188	-118.1781616210938	724.1334228515626	-1157.903564453125	135.2800903320313	476.5430908203126	-851.0447998046877	132.5659332275391	424.1202697753907	-884.058044433594	159.8343658447266	427.7220764160157	-829.4985351562502	147.8545684814453	375.1040649414063	-855.8242797851565	186.9566802978516	376.2879638671876	-699.9007568359376	165.5630187988282	353.0566406250001	-661.7351074218751	227.4404754638672	363.9957275390626	-676.1821289062501	152.6996459960938	290.5888977050782	-697.2380371093751	250.4195098876954	316.1493225097657	-712.5730590820314	164.2644958496094	249.5487670898438	-738.6106567382814	174.8077239990235	214.6472778320313	-735.3827514648439	215.244613647461	220.7604522705079	-771.5435180664065	269.9770507812501	266.7551269531251	-707.1972656250001	183.7340545654297	154.7915344238282	-726.2387695312501	230.6816406250001	154.5925903320313	-755.5516357421876	294.0817871093751	191.8064575195313	-726.8986816406251	226.9635467529297	96.50616455078128	-766.8194580078126	-537.2713623046876	735.4247436523439	-1152.550903320313	-574.1961669921876	760.9699096679689	-1195.390869140625	-553.2471923828126	684.5920410156251	-1220.343627929688	-576.0282592773439	714.3294067382814	-1268.68994140625	-418.4317626953126	297.8930969238282	-1363.897705078125	-448.7546386718751	283.4588317871094	-1405.779296875	-411.3876037597657	250.5270385742188	-1395.338256835938	-434.101043701172	244.9152069091797	-1448.126586914063	-296.3939208984376	122.8661575317383	-1434.976196289063	-313.4974365234376	77.92885589599611	-1437.66064453125	-269.8453674316407	101.9615478515625	-1468.372436523438	-400.7207336425782	163.7082214355469	-1636.629150390625	-451.9625854492189	87.45388793945314	-1573.182861328125	
75	0.3083333333333333	-317.4761962890626	1128.263916015625	-1048.861450195313	-400.8957824707032	1085.79248046875	-992.059753417969	-349.2917480468751	1036.61767578125	-1249.464477539063	-540.7858886718751	1001.115295410156	-1133.88720703125	-121.5323562622071	844.6526489257815	-1151.931030273438	-143.4862518310547	806.106384277344	-1193.368530273438	-100.6369400024414	763.0666503906251	-1143.823364257813	-128.7454376220703	723.7127075195314	-1176.722534179688	126.5122985839844	484.8324584960939	-865.3907470703127	125.8904800415039	431.6457519531251	-897.2919921875002	152.4313507080078	437.4078063964845	-842.508239746094	141.950439453125	383.7801818847657	-867.4758911132815	178.724838256836	389.6400756835939	-710.8751831054689	158.4021301269532	365.5096435546876	-672.6044921875001	219.5519256591797	379.1465148925782	-686.7899169921876	147.5242614746094	303.1574707031251	-706.7243041992189	244.2706756591797	331.5040893554688	-722.4479370117189	160.60888671875	261.2024230957032	-747.4312744140626	172.3207550048828	227.1405487060547	-743.6472167968751	212.6226654052735	234.1750946044922	-779.887145996094	265.5796508789063	283.0130920410157	-716.1998901367189	183.4741973876953	167.7498168945313	-733.6444091796876	230.3682403564454	168.5663299560547	-762.3339843750001	292.3982238769532	208.6431732177735	-734.7363281250001	228.7048797607422	110.4111404418946	-773.192565917969	-545.6510620117189	732.2161865234376	-1166.947875976563	-581.2619628906251	755.7001342773439	-1211.289428710938	-560.3418579101564	680.6870727539064	-1234.39111328125	-582.2557373046876	709.6397094726564	-1283.488525390625	-428.6722106933595	292.9389038085938	-1385.938354492188	-459.9565734863282	280.3822326660157	-1427.609619140625	-422.941864013672	246.5120544433594	-1418.546752929688	-446.7403869628907	242.5642242431641	-1471.329467773438	-311.2181701660157	117.889518737793	-1463.550048828125	-328.8129882812501	73.24283599853517	-1467.394165039063	-285.2387390136719	97.72119903564456	-1497.830932617188	-416.9052734375001	166.0053100585938	-1662.933715820313	-468.1441040039064	88.60218811035158	-1601.498046875	
